<svg width="276" height="276" viewBox="0 0 276 276" fill="none" xmlns="http://www.w3.org/2000/svg">
  <path d="M234.201 91.4142C244.684 72.432 236.185 36.7353 230.802 29.6556C229.102 37.8709 207.474 64.5977 201.243 66.8617C200.111 61.1944 191.799 47.7861 183.299 47.2183C183.677 55.7175 176.216 72.9028 171.968 73.4706C167.72 74.0384 137.878 27.1041 137.878 27.1041C137.878 27.1041 108.035 74.0384 103.788 73.4706C99.5398 72.9028 92.0792 55.7175 92.4565 47.2183C83.9573 47.7861 75.6486 61.1944 74.5129 66.8617C68.2814 64.5941 46.6542 37.8709 44.9543 29.6556C39.5709 36.7389 31.0717 72.4356 41.5546 91.4142C32.4876 91.1303 21.4404 79.7992 21.4404 79.7992C28.8076 110.396 47.5275 127.837 69.8842 131.643C96.5139 136.174 103.881 144.109 103.881 144.109C103.881 144.109 85.2762 152.483 84.1442 175.274C82.8864 196.176 89.179 211.284 113.228 214.935C118.191 215.69 137.874 254.596 137.874 254.596C137.874 254.596 157.557 215.686 162.52 214.935C186.57 211.284 192.866 196.176 191.604 175.274C190.472 152.483 171.868 144.109 171.868 144.109C171.868 144.109 179.235 136.178 205.865 131.643C228.221 127.837 246.945 110.396 254.308 79.7992C254.308 79.7992 243.261 91.1303 234.194 91.4142H234.201Z" stroke="#D0A74E" stroke-width="4" stroke-miterlimit="10"/>
  <path d="M234.201 91.4142C244.684 72.432 236.185 36.7353 230.802 29.6556C229.102 37.8709 207.474 64.5977 201.243 66.8617C200.111 61.1944 191.799 47.7861 183.299 47.2183C183.677 55.7175 176.216 72.9028 171.968 73.4706C167.72 74.0384 137.878 27.1041 137.878 27.1041C137.878 27.1041 108.035 74.0384 103.788 73.4706C99.5398 72.9028 92.0792 55.7175 92.4565 47.2183C83.9573 47.7861 75.6485 61.1944 74.5129 66.8617C68.2814 64.5941 46.6542 37.8709 44.9543 29.6556C39.5709 36.7389 31.0717 72.4356 41.5546 91.4142C32.4876 91.1303 21.4404 79.7992 21.4404 79.7992C28.8076 110.396 47.5275 127.837 69.8842 131.643C96.5139 136.174 103.881 144.109 103.881 144.109C103.881 144.109 85.2762 152.483 84.1442 175.274C82.8864 196.176 89.179 211.284 113.228 214.935C118.191 215.69 137.874 254.596 137.874 254.596C137.874 254.596 157.557 215.686 162.52 214.935C186.57 211.284 192.866 196.176 191.604 175.274C190.472 152.483 171.868 144.109 171.868 144.109C171.868 144.109 179.235 136.178 205.865 131.643C228.221 127.837 246.945 110.396 254.308 79.7992C254.308 79.7992 243.261 91.1303 234.194 91.4142H234.201Z" fill="#252525"/>
  <path d="M106.156 182.591C105.893 180.881 105.548 170.426 110.838 163.753C121.415 152.091 130.716 161.155 132.843 163.138C132.832 163.102 132.825 163.063 132.814 163.027C132.768 162.951 132.728 162.887 132.681 162.808C132.681 162.808 132.66 162.585 132.627 162.182C132.182 159.836 131.97 155.987 131.848 152.411C131.607 148.975 131.416 145.601 131.456 143.919C131.495 143.937 131.538 143.958 131.578 143.976C131.578 143.958 131.574 143.933 131.571 143.919C134 145.126 136.067 145.572 137.817 145.612C139.567 145.576 141.633 145.126 144.063 143.919C144.063 143.933 144.059 143.958 144.056 143.976C144.095 143.958 144.138 143.937 144.178 143.919C144.217 145.601 144.027 148.972 143.786 152.411C143.664 155.99 143.452 159.836 143.006 162.182C142.97 162.581 142.952 162.808 142.952 162.808C142.906 162.883 142.862 162.951 142.819 163.027C142.808 163.063 142.801 163.102 142.79 163.138C144.914 161.155 154.219 152.091 164.795 163.753C170.081 170.426 169.83 179.997 169.388 182.498C168.86 185.499 167.239 190.889 162.15 192.776C149.241 197.433 139.164 189.2 137.82 172.381C136.476 189.2 129.774 196.567 113.491 192.776C106.781 190.242 106.353 183.82 106.167 182.591H106.156Z" fill="#C50226"/>
  <path d="M169.463 182.591C169.726 180.881 170.071 170.426 164.781 163.753C154.204 152.091 144.904 161.155 142.776 163.138C142.787 163.102 142.794 163.063 142.805 163.027C142.852 162.951 142.891 162.887 142.938 162.808C142.938 162.808 142.96 162.585 142.992 162.182C143.437 159.836 143.649 155.987 143.772 152.411C144.012 148.975 144.203 145.601 144.163 143.919C144.124 143.937 144.081 143.958 144.041 143.976C144.041 143.958 144.045 143.933 144.048 143.919C141.619 145.126 139.553 145.572 137.802 145.612C136.052 145.576 133.986 145.126 131.557 143.919C131.557 143.933 131.56 143.958 131.564 143.976C131.524 143.958 131.481 143.937 131.442 143.919C131.402 145.601 131.592 148.972 131.833 152.411C131.955 155.99 132.167 159.836 132.613 162.182C132.649 162.581 132.667 162.808 132.667 162.808C132.714 162.883 132.757 162.951 132.8 163.027C132.811 163.063 132.818 163.102 132.829 163.138C130.705 161.155 121.401 152.091 110.824 163.753C105.538 170.426 105.789 179.997 106.231 182.498C106.76 185.499 108.38 190.889 113.469 192.776C126.378 197.433 136.455 189.2 137.799 172.381C139.143 189.2 145.845 196.567 162.129 192.776C168.838 190.242 169.266 183.82 169.453 182.591H169.463Z" fill="#C50226"/>
  <path d="M145.834 127.398C146.208 125.799 146.072 124.735 145.953 124.419C145.888 124.25 145.173 124.861 143.739 125.548C142.543 126.119 141.17 126.59 140.149 126.734C137.878 127.053 138.169 132.448 138.086 133.475C138.079 133.587 138.043 133.72 138.029 133.831L137.982 134.234L137.946 133.9C137.932 133.788 137.899 133.572 137.889 133.461C137.77 132.351 138.068 127.053 135.801 126.734C134.78 126.59 133.411 126.119 132.21 125.548C130.773 124.861 130.058 124.25 129.997 124.419C129.878 124.735 129.742 125.799 130.115 127.398C130.32 128.282 130.302 129.465 130.464 130.956C130.744 133.558 128.99 138.532 134.514 141.669C134.866 141.87 135.894 142.266 136.494 142.384C137.155 142.517 137.633 142.539 137.975 142.481C138.316 142.539 138.794 142.517 139.455 142.384C140.056 142.262 141.083 141.867 141.436 141.669C146.963 138.532 145.205 133.555 145.486 130.956C145.648 129.465 145.63 128.282 145.834 127.398Z" fill="#C50226"/>
  <path d="M138.266 123.564C143.315 123.42 147.286 119.841 147.286 119.841L147.254 106.494C147.254 106.494 141.4 107.974 139.164 107.91C139.308 111.381 138.266 115.496 138.065 116.254C137.863 115.496 136.821 111.381 136.965 107.91C134.73 107.974 128.875 106.494 128.875 106.494L128.843 119.841C128.843 119.841 132.811 123.424 137.863 123.564V123.571C137.932 123.571 138 123.571 138.065 123.571C138.133 123.571 138.198 123.571 138.266 123.571V123.564Z" fill="#C50226"/>
  <path d="M138.144 53.9278C138.144 53.9278 138.144 53.9062 138.144 53.899C138.144 53.899 138.144 53.9062 138.144 53.9098C138.144 53.9098 138.144 53.9026 138.144 53.899C138.144 53.9026 138.144 53.917 138.144 53.9278C136.886 58.0822 120.613 79.5189 117.347 80.9025C126.475 87.8923 128.742 103.126 128.742 103.126L136.929 104.51C136.936 104.474 136.943 104.398 136.943 104.398C136.943 104.398 137.511 89.0998 124.998 84.9922C124.998 84.9922 122.637 81.6392 122.213 81.4523C121.789 81.2619 129.202 82.5844 132.318 85.8439L138.007 67.3361L143.757 85.8439C146.873 82.5844 154.287 81.2655 153.863 81.4523C153.439 81.6428 151.078 84.9922 151.078 84.9922C139.049 88.9417 139.107 103.227 139.128 104.33C139.128 104.395 139.15 104.528 139.154 104.546L147.556 103.126C147.556 103.126 149.823 87.8923 158.952 80.9025C155.685 79.5189 139.409 58.0858 138.154 53.9278H138.144Z" fill="#C50226"/>
  <path d="M141.856 92.8086C150.804 91.0297 151.067 84.9958 151.067 84.9958C151.067 84.9958 144.361 85.2869 141.856 92.8086Z" fill="#CFA650"/>
  <path d="M134.202 92.8086C125.253 91.0297 124.991 84.9958 124.991 84.9958C124.991 84.9958 131.697 85.2869 134.202 92.8086Z" fill="#CFA650"/>
  <path d="M204.542 106.138C204.542 106.138 223.175 90.9039 224.94 68.867C224.94 68.867 212.096 89.0136 188.298 95.5614C188.298 95.5614 189.933 93.6711 190.44 87.8816H187.543C187.543 87.8816 181.312 103.496 152.508 110.292L152.497 110.45L151.469 127.668C151.469 127.668 165.161 112.56 197.034 103.777C191.572 107.396 186.472 110.544 184.018 111.047C184.877 112.761 190.436 115.129 192.42 114.389C192.445 114.317 192.513 114.256 192.61 114.27C193.311 114.364 193.98 114.612 194.677 114.72C195.432 114.835 196.193 114.896 196.948 115.004C198.414 115.216 198.555 115.259 199.999 115.593C200.017 115.597 200.833 115.686 200.847 115.694C203.234 115.19 212.301 112.858 217.885 105.879C217.885 105.879 208.064 107.263 204.538 106.131L204.542 106.138Z" fill="#C50226"/>
  <path d="M152.799 107.043L152.501 110.569C152.501 110.569 173.574 108.697 187.457 88.8663C188.686 89.337 190.314 88.9597 190.314 88.9597C190.314 88.9597 191.493 83.012 187.834 77.9125C187.834 77.9125 180.234 102.512 152.799 107.047V107.043Z" fill="#D0A74E"/>
  <path d="M210.277 86.3147C210.277 86.3147 205.368 100.794 180.687 105.39C180.687 105.39 197.62 98.3394 210.277 86.3147Z" fill="#D0A74E"/>
  <path d="M123.456 110.461L123.445 110.303C94.6413 103.504 88.4097 87.8923 88.4097 87.8923H85.5132C86.0163 93.6855 87.6551 95.5722 87.6551 95.5722C63.8572 89.0244 51.0132 68.8778 51.0132 68.8778C52.7777 90.9111 71.4113 106.149 71.4113 106.149C67.8858 107.281 58.0641 105.897 58.0641 105.897C64.1879 113.552 73.8371 115.478 75.059 115.697C75.0733 115.697 75.0913 115.697 75.1057 115.697C75.4687 115.794 75.8676 115.758 76.2413 115.751C76.6115 115.744 76.978 115.73 77.3446 115.712C78.013 115.683 78.6887 115.665 79.3571 115.597C80.0435 115.525 80.6904 115.37 81.3193 115.086C81.9626 114.795 82.5843 114.472 83.2851 114.35C83.3174 114.342 83.3426 114.35 83.3677 114.353C83.3677 114.346 83.3677 114.335 83.3713 114.332C85.1969 115.277 91.0476 112.851 91.9316 111.086C89.3657 110.184 84.3812 107.406 78.9187 103.784C110.792 112.567 124.484 127.675 124.484 127.675L123.456 110.457V110.461Z" fill="#C50226"/>
  <path d="M123.165 107.043L123.463 110.569C123.463 110.569 102.389 108.697 88.5068 88.8663C87.2777 89.337 85.6498 88.9597 85.6498 88.9597C85.6498 88.9597 84.471 83.012 88.1295 77.9125C88.1295 77.9125 95.7302 102.512 123.165 107.047V107.043Z" fill="#D0A74E"/>
  <path d="M65.6829 86.3147C65.6829 86.3147 70.5919 100.794 95.2738 105.39C95.2738 105.39 78.3401 98.3394 65.6829 86.3147Z" fill="#D0A74E"/>
  <path d="M90.9902 110.774C116.959 119.082 123.46 136.113 123.46 136.113C116.409 122.892 75.0591 115.694 75.0591 115.694L90.9902 110.774Z" fill="#C50226"/>
  <path d="M147.574 201.613C147.574 201.613 140.62 198.986 137.914 191.367C135.208 198.986 128.408 201.627 128.408 201.627C130.23 203.216 138.039 221.774 138.039 221.774C138.931 219.614 145.752 203.201 147.574 201.613Z" fill="#C50226"/>
  <path d="M138.018 221.49L135.139 206.522L137.831 201.753L140.631 206.475L138.018 221.49Z" fill="#D0A74E"/>
  <path d="M123.456 110.461L123.445 110.303C94.6413 103.504 88.4097 87.8923 88.4097 87.8923H85.5132C86.0163 93.6855 87.6551 95.5722 87.6551 95.5722C63.8572 89.0244 51.0132 68.8778 51.0132 68.8778C52.7777 90.9111 71.4113 106.149 71.4113 106.149C67.8858 107.281 58.0641 105.897 58.0641 105.897C64.1879 113.552 73.8371 115.478 75.059 115.697C75.0733 115.697 75.0913 115.697 75.1057 115.697C75.4687 115.794 75.8676 115.758 76.2413 115.751C76.6115 115.744 76.978 115.73 77.3446 115.712C78.013 115.683 78.6887 115.665 79.3571 115.597C80.0435 115.525 80.6904 115.37 81.3193 115.086C81.9626 114.795 82.5843 114.472 83.2851 114.35C83.3174 114.342 83.3426 114.35 83.3677 114.353C83.3677 114.346 83.3677 114.335 83.3713 114.332C85.1969 115.277 91.0476 112.851 91.9316 111.086C89.3657 110.184 84.3812 107.406 78.9187 103.784C110.792 112.567 124.484 127.675 124.484 127.675L123.456 110.457V110.461Z" fill="#C50226"/>
  <path d="M123.165 107.043L123.463 110.569C123.463 110.569 102.389 108.697 88.5068 88.8663C87.2777 89.337 85.6498 88.9597 85.6498 88.9597C85.6498 88.9597 84.471 83.012 88.1295 77.9125C88.1295 77.9125 95.7302 102.512 123.165 107.047V107.043Z" fill="#D0A74E"/>
  <path d="M65.6829 86.3147C65.6829 86.3147 70.5919 100.794 95.2738 105.39C95.2738 105.39 78.3401 98.3394 65.6829 86.3147Z" fill="#D0A74E"/>
  <path d="M90.9902 110.774C116.959 119.082 123.46 136.113 123.46 136.113C116.409 122.892 75.0591 115.694 75.0591 115.694L90.9902 110.774Z" fill="#C50226"/>
  <path d="M184.967 110.774C158.998 119.082 152.497 136.113 152.497 136.113C159.548 122.892 200.898 115.694 200.898 115.694L184.967 110.774Z" fill="#C50226"/>
  <path d="M65.8232 109.358C65.8232 109.358 68.2634 112.883 80.4606 114.127C89.294 115.029 99.0654 119.036 99.0654 119.036C99.0654 119.036 90.9939 112.531 78.6673 111.388C66.312 110.238 65.8232 109.358 65.8232 109.358Z" fill="#D0A74E"/>
  <path d="M210.213 109.358C210.213 109.358 207.773 112.883 195.576 114.127C186.742 115.029 176.971 119.036 176.971 119.036C176.971 119.036 185.042 112.531 197.369 111.388C209.695 110.245 210.213 109.358 210.213 109.358Z" fill="#D0A74E"/>
  <path d="M133.508 164.932C133.508 164.932 133.044 159.832 124.75 158.06C114.267 156.148 108.114 166.376 107.421 170.279C107.658 170.085 118.084 155.11 133.508 164.932Z" fill="#D0A74E"/>
  <path d="M142.118 164.932C142.118 164.932 142.582 159.832 150.876 158.06C161.359 156.148 167.512 166.376 168.205 170.279C167.968 170.085 157.543 155.11 142.118 164.932Z" fill="#D0A74E"/>
</svg>
